<?xml version="1.0" standalone="no"?><!DOCTYPE svg PUBLIC "-//W3C//DTD SVG 1.1//EN" "http://www.w3.org/Graphics/SVG/1.1/DTD/svg11.dtd"><svg class="icon" height="512" viewBox="0 0 1024 1024" version="1.1" xmlns="http://www.w3.org/2000/svg"><path d="M468.7 584.1c24.5 24 64.3 24 88.8 0l448-436.4c24.5-24 24.5-62.8 0-86.7-24.5-24-64.3-24-88.8 0L513.1 454.1 109.5 61C85 37 45.2 37 20.7 61s-24.5 62.8 0 86.7l448 436.4z m448.1-144.7L513.1 832.5 109.5 439.4c-24.5-24-64.3-24-88.8 0s-24.5 62.8 0 86.7l448 436.4c24.5 24 64.3 24 88.8 0l448-436.4c24.5-24 24.5-62.8 0-86.7-24.4-24-64.2-24-88.7 0z" fill="#FFFFFF88" /></svg>